<?xml version="1.0" standalone="no"?>
<!DOCTYPE svg PUBLIC "-//W3C//DTD SVG 20010904//EN"
 "http://www.w3.org/TR/2001/REC-SVG-20010904/DTD/svg10.dtd">
<svg version="1.0" xmlns="http://www.w3.org/2000/svg"
 width="500.000000pt" height="500.000000pt" viewBox="0 0 500.000000 500.000000"
 preserveAspectRatio="xMidYMid meet">

<g transform="translate(0.000000,500.000000) scale(0.100000,-0.100000)"
fill="#000000" stroke="none">
<path d="M2225 4719 c-525 -64 -995 -298 -1355 -676 -321 -336 -520 -738 -597
-1208 -25 -156 -25 -516 0 -670 40 -241 103 -439 206 -650 117 -239 230 -396
425 -591 196 -195 349 -306 597 -429 233 -115 487 -189 748 -216 143 -15 461
-6 591 16 474 81 892 296 1222 631 138 140 186 199 285 347 164 245 281 543
338 857 23 126 32 481 16 621 -35 305 -137 610 -293 876 -217 373 -544 677
-933 871 -227 114 -467 186 -710 216 -140 17 -420 20 -540 5z m507 -55 c7 -4
37 -9 68 -11 30 -2 62 -6 70 -9 8 -4 31 -8 50 -10 19 -2 42 -7 50 -10 8 -4 26
-9 40 -11 14 -2 32 -6 40 -10 8 -3 26 -8 40 -10 13 -2 27 -7 30 -11 3 -4 16
-9 30 -11 14 -1 27 -6 30 -10 3 -3 16 -8 30 -10 14 -1 28 -7 31 -13 3 -5 10
-9 15 -8 5 0 18 -2 29 -6 11 -3 26 -8 34 -9 8 -2 17 -7 20 -12 3 -4 13 -9 22
-11 30 -4 204 -99 202 -109 -1 -6 8 -10 20 -9 13 1 21 -4 20 -11 -2 -7 0 -12
5 -12 21 4 40 -3 60 -21 12 -11 25 -20 30 -20 5 0 23 -14 41 -30 17 -17 31
-27 31 -24 0 4 9 -1 20 -11 11 -10 17 -22 13 -28 -3 -5 -1 -7 5 -3 6 3 17 1
24 -6 8 -7 23 -18 33 -25 11 -6 19 -16 18 -22 -2 -6 3 -10 10 -8 6 1 11 -4 9
-11 -1 -8 2 -11 7 -7 13 7 203 -183 196 -196 -4 -5 -1 -8 7 -7 7 2 12 -3 10
-10 -1 -6 4 -11 10 -10 7 2 12 -3 10 -10 -1 -6 4 -11 10 -10 8 2 13 -6 12 -19
-1 -13 2 -20 7 -18 11 7 40 -25 33 -36 -3 -5 0 -8 6 -7 7 2 17 -6 23 -17 7
-10 18 -25 25 -33 7 -7 10 -18 6 -23 -3 -5 -2 -8 3 -7 4 2 9 0 10 -5 2 -4 12
-17 23 -29 11 -12 20 -28 20 -35 0 -7 4 -13 8 -13 5 0 20 -21 33 -47 13 -27
29 -54 36 -61 6 -7 10 -21 8 -32 -2 -11 -1 -19 3 -17 4 1 8 -2 9 -7 1 -5 6
-12 13 -16 6 -4 12 -13 14 -21 1 -8 14 -39 28 -69 15 -30 28 -62 30 -70 2 -8
6 -17 9 -20 4 -3 9 -16 10 -30 2 -14 7 -27 10 -30 4 -3 9 -16 10 -30 2 -14 8
-28 12 -31 4 -3 9 -22 10 -41 1 -20 5 -34 10 -31 4 2 8 -3 8 -11 2 -19 4 -26
12 -46 4 -8 9 -31 11 -50 2 -19 6 -42 10 -50 3 -8 8 -31 10 -50 2 -19 6 -42
10 -51 4 -9 8 -51 10 -92 1 -42 5 -80 9 -83 10 -10 9 -76 -1 -70 -5 3 -9 -1
-9 -9 0 -8 4 -12 9 -9 4 3 8 -47 8 -111 0 -90 -3 -115 -12 -109 -10 6 -10 5
-1 -8 7 -8 10 -18 6 -22 -4 -3 -8 -41 -10 -83 -2 -42 -7 -80 -11 -83 -4 -3 -8
-17 -9 -32 -1 -51 -3 -59 -11 -54 -5 3 -9 -1 -9 -9 0 -8 5 -11 11 -8 8 5 8 3
0 -8 -5 -8 -11 -30 -13 -49 -2 -19 -6 -37 -10 -40 -3 -3 -8 -18 -10 -35 -1
-16 -6 -34 -9 -40 -4 -5 -7 -16 -8 -23 -2 -8 -6 -21 -10 -30 -4 -9 -8 -23 -10
-30 -1 -8 -6 -21 -10 -30 -4 -9 -8 -24 -10 -33 -6 -26 -31 -69 -37 -62 -4 3
-5 -4 -2 -16 2 -11 -2 -26 -8 -33 -7 -7 -13 -20 -15 -29 -5 -31 -79 -164 -90
-162 -6 2 -9 -6 -7 -17 2 -11 0 -22 -5 -25 -5 -3 -17 -21 -26 -40 -9 -19 -20
-35 -25 -35 -5 0 -9 -6 -9 -13 0 -7 -8 -22 -17 -33 -10 -11 -23 -29 -30 -40
-6 -10 -16 -18 -23 -16 -6 1 -9 -2 -6 -7 4 -5 1 -16 -6 -23 -7 -8 -18 -23 -25
-33 -6 -11 -16 -19 -23 -17 -6 1 -9 -2 -6 -7 4 -6 -8 -25 -26 -44 -18 -18 -38
-42 -45 -53 -6 -10 -16 -18 -22 -17 -6 2 -10 -3 -8 -10 1 -6 -4 -11 -10 -10
-7 2 -12 -3 -10 -10 1 -6 -4 -11 -10 -10 -7 2 -12 -3 -10 -10 1 -6 -4 -11 -10
-10 -7 2 -12 -3 -10 -10 1 -6 -4 -11 -10 -10 -7 2 -12 -3 -10 -10 1 -6 -4 -11
-10 -10 -7 2 -12 -2 -10 -8 1 -6 -7 -16 -17 -22 -11 -7 -35 -27 -53 -45 -19
-18 -38 -30 -44 -26 -5 3 -8 0 -7 -6 2 -7 -6 -17 -17 -23 -10 -7 -25 -18 -33
-25 -7 -7 -18 -10 -23 -6 -5 3 -8 0 -7 -6 2 -7 -6 -17 -16 -23 -11 -7 -29 -20
-40 -29 -11 -10 -26 -18 -33 -18 -7 0 -13 -4 -13 -8 0 -5 -12 -15 -27 -22 -16
-8 -36 -21 -45 -29 -10 -8 -18 -11 -18 -7 0 4 -7 0 -16 -8 -8 -9 -20 -14 -25
-11 -5 4 -9 2 -9 -3 0 -9 -74 -49 -100 -54 -8 -2 -17 -6 -20 -10 -3 -3 -12 -8
-20 -10 -8 -2 -20 -8 -27 -15 -7 -6 -22 -10 -33 -8 -11 2 -18 0 -15 -6 6 -8
-7 -12 -47 -12 -9 0 -16 -4 -15 -10 1 -6 -2 -12 -8 -12 -5 -1 -18 -5 -27 -9
-9 -4 -22 -8 -30 -10 -7 -1 -19 -6 -27 -10 -9 -6 -12 -5 -8 1 3 5 0 10 -8 10
-8 0 -13 -5 -12 -11 1 -5 -7 -10 -18 -10 -11 0 -23 -4 -26 -9 -3 -4 -22 -9
-41 -10 -20 -1 -34 -5 -31 -9 2 -5 -7 -9 -21 -9 -14 -1 -34 -2 -43 -2 -10 -1
-21 -5 -24 -9 -3 -5 -31 -9 -61 -11 -31 -1 -54 -5 -51 -9 4 -8 -24 -10 -139
-11 -27 -1 -48 -5 -48 -9 0 -10 -274 -11 -284 -1 -3 4 -38 8 -78 10 -39 2 -78
9 -86 15 -13 11 -14 11 -7 -1 6 -11 4 -13 -11 -6 -10 4 -39 10 -64 12 -25 3
-49 8 -55 12 -5 4 -26 8 -45 10 -19 2 -37 6 -40 10 -3 3 -18 8 -35 10 -16 1
-34 6 -40 9 -5 4 -21 8 -35 10 -13 2 -27 8 -31 14 -3 5 -10 9 -15 8 -5 0 -18
2 -29 6 -11 3 -29 8 -40 10 -11 3 -24 9 -29 14 -6 6 -18 10 -28 10 -10 0 -18
5 -18 12 0 6 -3 8 -7 5 -3 -4 -15 1 -26 10 -11 10 -17 13 -14 6 9 -14 -224
103 -234 118 -3 6 -10 11 -15 12 -5 1 -8 5 -7 9 2 5 0 7 -5 7 -21 -4 -40 3
-58 19 -11 9 -29 22 -40 29 -10 6 -18 16 -16 23 1 6 -2 9 -7 6 -5 -4 -17 2
-27 11 -10 10 -20 18 -23 18 -3 0 -5 4 -3 8 1 5 -1 6 -6 3 -5 -3 -24 9 -44 27
-19 18 -43 37 -54 44 -10 6 -18 16 -17 22 2 6 -3 10 -10 8 -6 -1 -11 4 -10 10
2 7 -3 12 -10 10 -6 -1 -11 4 -10 10 2 7 -3 12 -10 10 -6 -1 -11 4 -9 11 1 8
-2 11 -7 8 -13 -8 -63 42 -55 55 3 5 0 8 -8 7 -7 -2 -12 3 -11 9 2 7 -3 12
-10 10 -6 -1 -11 4 -10 10 2 7 -3 12 -10 10 -6 -1 -11 4 -10 10 2 7 -3 12 -10
10 -6 -1 -11 4 -10 10 2 7 -1 12 -6 10 -5 -1 -9 1 -10 6 0 4 -17 23 -36 43
-20 19 -33 39 -29 45 3 5 1 8 -4 7 -6 -2 -10 0 -11 5 0 4 -14 21 -31 39 -16
17 -30 35 -30 40 0 5 -9 18 -20 30 -11 12 -20 28 -20 35 0 7 -4 13 -8 13 -5 0
-20 21 -33 47 -13 27 -30 54 -37 61 -6 8 -10 17 -7 22 3 5 1 10 -4 12 -5 1
-11 10 -13 18 -2 8 -9 21 -16 28 -7 8 -10 17 -7 22 3 5 1 10 -4 12 -5 1 -11
10 -13 18 -2 8 -7 18 -11 21 -5 3 -10 12 -12 20 -1 8 -6 24 -10 36 -4 12 -6
24 -4 26 2 2 -4 11 -13 20 -9 10 -15 26 -13 37 2 11 0 18 -6 15 -8 -5 -11 8
-8 31 0 4 -4 10 -11 14 -6 4 -12 23 -13 42 -1 20 -5 34 -9 31 -8 -4 -9 3 -11
45 -1 9 -5 19 -9 22 -4 3 -9 21 -10 40 -2 19 -7 38 -11 41 -4 3 -9 26 -10 50
-1 24 -5 47 -10 50 -4 3 -8 34 -10 70 -1 35 -6 67 -11 71 -12 8 -13 447 -1
473 8 19 11 40 14 101 1 17 5 23 13 18 10 -6 10 -5 1 8 -7 8 -10 18 -6 22 4 3
8 23 10 44 1 20 6 44 9 52 4 8 9 26 11 40 2 14 6 32 10 40 3 8 8 29 10 45 3
17 9 34 14 40 5 5 9 17 9 27 0 10 4 18 8 18 4 0 9 12 10 27 1 15 7 30 13 34 6
3 10 8 8 10 -1 2 1 15 5 29 5 14 10 31 11 39 2 8 9 17 15 21 7 4 12 11 13 16
1 5 7 8 12 6 6 -2 5 2 -1 8 -15 15 56 157 76 152 10 -2 11 0 2 11 -9 11 -7 18
8 35 11 12 21 25 23 29 1 5 5 7 10 5 4 -1 6 1 6 5 -4 22 3 41 21 61 11 12 21
25 23 29 1 5 5 7 10 5 4 -1 6 4 5 10 -2 7 3 12 10 10 6 -1 11 1 11 5 -4 23 4
41 29 68 15 17 32 40 39 50 6 11 16 19 22 18 6 -2 10 3 8 10 -1 6 4 11 11 9 8
-1 11 2 7 7 -3 6 19 35 50 66 30 30 52 55 49 55 -4 0 1 9 11 20 10 11 22 17
27 14 4 -3 7 0 6 8 -2 7 3 12 9 11 7 -2 12 0 10 5 -1 4 1 8 6 9 4 2 28 23 53
48 25 25 49 43 55 40 5 -4 8 -1 7 7 -2 7 3 12 9 11 7 -2 12 0 10 5 -1 4 0 7 3
7 3 0 18 12 34 28 15 15 32 25 37 21 5 -3 8 -2 7 3 -2 4 0 8 3 8 3 0 13 8 23
18 10 9 22 15 27 11 5 -3 8 -2 7 3 -2 4 0 8 3 8 3 0 13 8 23 18 10 9 22 15 27
11 5 -3 8 -2 7 3 -2 4 1 9 6 10 5 1 12 6 15 12 10 16 103 61 113 55 5 -3 7 -2
6 3 -2 4 0 8 3 8 3 0 13 8 22 17 10 9 26 15 37 13 11 -2 19 0 17 5 -1 4 1 9 5
10 4 1 28 12 54 25 26 13 51 22 56 19 4 -3 8 0 8 5 0 6 9 11 19 11 11 0 23 5
26 10 5 8 11 7 21 -1 12 -10 15 -10 12 1 -2 8 2 15 7 15 6 1 18 5 27 9 9 4 23
9 32 10 8 1 19 5 22 9 4 4 14 1 22 -6 13 -9 14 -9 8 1 -6 11 4 15 30 11 4 0
10 4 13 10 4 6 22 12 41 13 19 2 37 6 40 10 3 4 25 8 50 10 25 2 47 6 51 10 3
4 31 9 62 11 31 2 60 6 63 10 10 10 36 9 30 -1 -3 -5 1 -9 9 -9 8 0 12 4 9 8
-2 4 13 9 33 11 74 6 422 0 435 -8z"/>
<path d="M1536 4011 c-37 -29 -53 -51 -63 -83 -17 -56 -16 -58 7 -58 17 0 19
-5 14 -25 -5 -21 -3 -25 15 -25 18 0 20 -4 15 -25 -5 -21 -3 -25 16 -25 17 0
20 -4 15 -20 -5 -17 -2 -20 20 -20 22 0 24 -3 15 -19 -14 -28 -13 -31 15 -31
22 0 24 -3 15 -19 -14 -27 -13 -31 11 -31 18 0 20 -4 15 -25 -5 -21 -3 -25 14
-25 16 0 21 -5 18 -22 -2 -19 1 -22 20 -20 25 4 27 -1 12 -29 -9 -16 -7 -19
15 -19 25 0 34 -14 15 -25 -17 -10 1 -27 22 -22 15 4 18 2 13 -11 -12 -32 -10
-37 13 -34 20 3 22 0 16 -22 -5 -22 -3 -26 15 -26 18 0 20 -4 15 -25 -5 -21
-3 -25 15 -25 18 0 20 -4 15 -26 -6 -25 -5 -26 20 -20 25 6 26 5 17 -13 -16
-28 -14 -31 16 -31 21 0 24 -3 15 -12 -18 -18 -14 -38 8 -38 17 0 19 -5 14
-25 -5 -21 -3 -25 16 -25 19 0 21 -4 16 -25 -5 -21 -3 -25 14 -25 17 0 20 -4
15 -20 -5 -17 -2 -20 20 -20 22 0 24 -3 15 -19 -14 -28 -13 -29 18 -33 26 -3
25 -6 -48 -78 -499 -492 -518 -512 -522 -545 -6 -56 7 -82 89 -166 76 -78 82
-82 132 -87 l52 -5 67 69 c37 38 152 162 255 277 103 114 192 207 197 207 6 0
8 -11 4 -25 -5 -21 -3 -25 15 -25 18 0 20 -4 15 -26 -6 -23 -4 -25 15 -19 19
6 21 4 15 -19 -5 -22 -3 -26 16 -26 19 0 21 -4 16 -25 -5 -21 -3 -25 15 -25
18 0 20 -4 15 -25 -5 -21 -3 -25 14 -25 17 0 19 -4 14 -25 -6 -23 -3 -25 25
-25 21 0 43 11 71 36 51 46 59 85 31 147 -35 77 -25 121 44 187 64 61 79 109
51 162 -14 27 -13 28 72 113 l87 86 -39 33 c-35 30 -37 35 -26 56 11 21 5 30
-96 131 l-108 109 -28 -27 c-34 -33 -33 -33 -153 67 -73 61 -197 161 -519 423
-67 54 -143 116 -169 138 -62 50 -88 50 -151 0z m128 -67 c11 -29 6 -44 -19
-56 -19 -8 -28 -8 -40 2 -15 13 -20 51 -8 63 13 13 61 7 67 -9z"/>
<path d="M2310 3959 c-103 -21 -131 -32 -126 -46 4 -8 6 -25 6 -37 0 -21 6
-24 68 -30 128 -13 248 -61 350 -139 96 -73 104 -120 35 -197 l-46 -52 111
-111 111 -111 45 42 c38 35 52 42 86 42 52 0 112 -30 144 -72 29 -39 42 -83
27 -92 -6 -4 -11 -23 -11 -41 0 -27 9 -45 43 -80 37 -38 49 -45 82 -45 36 0
47 8 142 103 98 98 103 105 103 145 0 34 -7 49 -36 82 -36 40 -37 40 -105 38
-62 -3 -71 -1 -95 23 -27 28 -43 82 -44 153 0 37 -9 48 -132 173 -166 167
-232 210 -388 249 -63 15 -299 17 -370 3z"/>
<path d="M2776 2999 l-86 -81 6 -53 c9 -75 1 -96 -60 -162 -67 -73 -73 -90
-46 -149 19 -41 21 -57 15 -130 -5 -56 -4 -93 4 -112 14 -33 293 -302 315
-302 15 0 19 10 31 67 7 37 163 192 265 265 73 51 152 82 188 73 31 -8 92 12
92 30 0 7 -4 15 -9 17 -5 2 -60 50 -123 108 -62 58 -136 127 -164 153 -52 48
-68 73 -78 119 -4 19 -44 60 -129 133 -67 58 -125 105 -129 105 -4 0 -45 -36
-92 -81z m114 -75 c0 -21 -4 -33 -10 -29 -17 10 -11 65 7 65 2 0 3 -16 3 -36z
m45 16 c7 -21 0 -40 -16 -40 -5 0 -9 14 -9 30 0 34 15 40 25 10z m221 -288 c7
-9 14 -35 14 -57 0 -47 -14 -62 -213 -234 -130 -112 -152 -120 -205 -76 -32
27 -48 71 -37 104 3 11 56 64 118 118 62 53 129 113 150 133 54 51 84 61 126
44 19 -8 40 -22 47 -32z m-456 -28 c0 -21 -4 -33 -10 -29 -17 10 -11 65 7 65
2 0 3 -16 3 -36z m48 9 c2 -11 -4 -26 -13 -33 -13 -11 -15 -8 -15 25 0 39 22
46 28 8z"/>
<path d="M1110 1901 c-107 -23 -110 -34 -110 -386 0 -316 4 -341 59 -369 35
-18 222 -23 265 -6 47 17 66 64 66 163 l0 87 -65 0 -65 0 0 -53 c0 -29 -5 -58
-12 -65 -16 -16 -80 -16 -96 0 -9 9 -12 78 -12 249 0 261 -3 249 64 249 45 0
56 -16 56 -77 l0 -53 65 0 65 0 0 85 c0 98 -14 136 -60 160 -35 18 -168 28
-220 16z"/>
<path d="M3837 1898 c-9 -7 -32 -53 -51 -103 l-34 -90 -86 -3 -86 -3 -15 -36
c-29 -68 -25 -73 64 -73 l79 0 -26 -70 -27 -70 -73 0 c-73 0 -73 0 -87 -32
-29 -70 -27 -73 48 -76 37 -2 67 -4 67 -6 0 -1 -16 -43 -35 -92 -19 -49 -35
-94 -35 -101 0 -18 35 -25 86 -17 51 7 45 -1 98 142 l28 72 60 0 c44 0 59 -3
55 -12 -2 -7 -19 -53 -38 -101 -28 -75 -31 -90 -18 -98 13 -10 100 -6 118 5 5
3 25 51 46 106 l38 100 84 0 84 0 19 46 c11 25 20 50 20 55 0 5 -36 9 -80 9
-44 0 -80 4 -80 8 0 4 10 35 23 67 l23 60 76 3 76 3 16 46 c9 26 13 50 9 54
-5 5 -35 9 -69 11 l-61 3 35 93 c29 78 33 95 21 103 -21 13 -93 11 -112 -3 -9
-7 -32 -53 -50 -103 l-34 -90 -62 -3 -61 -3 29 78 c16 43 32 86 37 97 4 11 2
21 -7 27 -21 13 -93 11 -112 -3z m112 -360 c-12 -29 -24 -61 -26 -70 -4 -15
-17 -18 -64 -18 -33 0 -59 3 -59 8 0 4 10 35 22 70 l23 62 62 0 63 0 -21 -52z"/>
<path d="M1535 1878 c-52 -40 -55 -63 -55 -363 0 -300 3 -323 55 -363 25 -20
40 -22 139 -22 120 0 146 8 179 52 16 22 20 44 21 115 l1 88 -67 3 -68 3 0
-59 c0 -45 -4 -61 -16 -66 -26 -10 -79 -7 -92 6 -9 9 -12 77 -12 244 0 261 -1
257 72 252 l43 -3 5 -60 5 -60 62 -3 c60 -3 63 -2 69 23 11 43 -5 157 -25 185
-30 42 -58 50 -177 50 -99 0 -114 -2 -139 -22z"/>
<path d="M2113 1798 c-11 -14 -163 -622 -163 -651 0 -16 8 -18 62 -15 l63 3
14 63 14 62 88 0 88 0 10 -37 c5 -21 13 -50 17 -65 6 -27 9 -28 70 -28 55 0
64 3 63 18 0 9 -37 161 -82 337 l-82 320 -76 3 c-53 2 -79 -1 -86 -10z m121
-355 l14 -63 -54 0 c-30 0 -54 4 -54 9 0 11 38 177 47 206 5 15 10 5 19 -35 7
-30 20 -83 28 -117z"/>
<path d="M2517 1803 c-4 -3 -7 -156 -7 -340 l0 -333 64 0 c76 0 76 0 76 116
l0 85 37 -3 37 -3 24 -97 24 -98 64 0 c45 0 64 4 64 13 0 6 -11 56 -24 111
-23 96 -23 99 -5 117 29 29 34 63 33 212 -1 121 -3 141 -21 165 -38 52 -74 62
-224 62 -75 0 -139 -3 -142 -7z m241 -135 c8 -8 12 -46 12 -104 0 -104 0 -104
-81 -104 l-49 0 0 110 0 110 53 0 c29 0 58 -5 65 -12z"/>
<path d="M2997 1803 c-4 -3 -7 -156 -7 -340 l0 -333 33 0 c17 0 41 -3 53 -6
40 -11 54 19 54 115 l0 88 85 5 c91 6 122 19 152 65 15 23 18 51 18 174 0 133
-2 150 -21 176 -39 53 -75 63 -225 63 -75 0 -139 -3 -142 -7z m237 -136 c14
-10 16 -26 14 -102 l-3 -90 -57 -3 c-50 -3 -58 -1 -58 15 0 10 -3 50 -7 90 -3
40 -3 79 0 87 8 20 85 22 111 3z"/>
</g>
</svg>
